<?xml version="1.0" encoding="UTF-8" standalone="no"?>
<!DOCTYPE svg PUBLIC "-//W3C//DTD SVG 1.1//EN" "http://www.w3.org/Graphics/SVG/1.1/DTD/svg11.dtd">
<!-- Created with Vectornator (http://vectornator.io/) -->
<svg height="45" width="45" stroke-miterlimit="10" style="fill-rule:nonzero;clip-rule:evenodd;stroke-linecap:round;stroke-linejoin:round;" version="1.1" viewBox="0 0 45 45" xml:space="preserve" xmlns="http://www.w3.org/2000/svg" xmlns:xlink="http://www.w3.org/1999/xlink">
<defs/>
<clipPath id="ArtboardFrame">
<rect height="45" width="45" x="0" y="0"/>
</clipPath>
<g clip-path="url(#ArtboardFrame)" id="Layer-1">
<path d="M22.5 52.6797L-3.6364 37.5899L-3.6364 7.41014L22.5-7.67972L48.6364 7.41014L48.6364 37.5899L22.5 52.6797Z" fill="#008000" fill-rule="evenodd" opacity="1" stroke="none"/>
<g opacity="1">
<path d="M35.4838 11.7617L25.3117 5.88765C23.5731 4.88476 21.4324 4.88476 19.6938 5.88765L9.52172 11.7617C7.7832 12.7646 6.71144 14.6188 6.71144 16.6246L6.71144 28.3727C6.71144 30.3784 7.7832 32.2327 9.51897 33.2383L19.6911 39.1124C21.4296 40.1152 23.5704 40.1152 25.3089 39.1124L35.481 33.2383C37.2195 32.2354 38.2885 30.3812 38.2885 28.3727L38.2885 16.6246C38.2941 14.6188 37.2223 12.7646 35.4838 11.7617ZM22.5041 36.3489C14.8557 36.3489 8.65384 30.147 8.65384 22.4986C8.65384 14.8502 14.853 8.64834 22.5041 8.64834C30.1553 8.64834 36.3544 14.8502 36.3544 22.4986C36.3544 30.147 30.1525 36.3489 22.5041 36.3489Z" fill="#ffff00" fill-rule="evenodd" opacity="1" stroke="none"/>
<path d="M28.7694 15.269L25.2786 15.269L25.2786 18.8535L17.801 18.8535L17.801 15.269L14.3102 15.269L14.3102 18.8535L11.7093 18.8535L11.7093 22.3333L14.3102 22.3333L14.3102 26.546C14.3102 27.7004 14.5802 28.5738 15.1202 29.1634C15.6603 29.753 16.5061 30.0478 17.6605 30.0478L23.6916 30.0478L23.6916 26.6837L18.5504 26.6837C18.3052 26.6837 18.1179 26.5956 17.9911 26.422C17.8644 26.2484 17.801 26.0005 17.801 25.6781L17.801 22.3333L25.2786 22.3333L25.2786 26.546C25.2786 27.7004 25.5486 28.5738 26.0886 29.1634C26.6286 29.753 27.4745 30.0478 28.6289 30.0478L32.1968 30.0478L32.1968 26.6837L29.5216 26.6837C29.2764 26.6837 29.089 26.5956 28.9623 26.422C28.8355 26.2484 28.7722 26.0005 28.7722 25.6781L28.7722 22.3333L32.1996 22.3333L32.1996 18.8535L28.7694 18.8535L28.7694 15.269Z" fill="#ffff00" fill-rule="evenodd" opacity="1" stroke="none"/>
</g>
</g>
</svg>
