<?xml version="1.0" encoding="UTF-8" standalone="no"?>
<!DOCTYPE svg PUBLIC "-//W3C//DTD SVG 1.1//EN" "http://www.w3.org/Graphics/SVG/1.1/DTD/svg11.dtd">
<!-- Created with Vectornator (http://vectornator.io/) -->
<svg height="45" width="45" stroke-miterlimit="10" style="fill-rule:nonzero;clip-rule:evenodd;stroke-linecap:round;stroke-linejoin:round;" version="1.1" viewBox="0 0 45 45" xml:space="preserve" xmlns="http://www.w3.org/2000/svg" xmlns:xlink="http://www.w3.org/1999/xlink">
<defs/>
<g id="Layer-1">
<g opacity="1">
<path d="M39.0762 8.79055L26.0896 1.29124C23.8701 0.0108651 21.137 0.0108651 18.9174 1.29124L5.9308 8.79055C3.71126 10.0709 2.34295 12.4382 2.34295 14.9989L2.34295 29.9976C2.34295 32.5583 3.71126 34.9256 5.92729 36.2095L18.9139 43.7088C21.1334 44.9891 23.8665 44.9891 26.0861 43.7088L39.0727 36.2095C41.2922 34.9291 42.657 32.5618 42.657 29.9976L42.657 14.9989C42.6641 12.4382 41.2957 10.0709 39.0762 8.79055ZM22.5053 40.1807C12.7407 40.1807 4.82279 32.2628 4.82279 22.4982C4.82279 12.7337 12.7372 4.81577 22.5053 4.81577C32.2734 4.81577 40.1877 12.7337 40.1877 22.4982C40.1877 32.2628 32.2698 40.1807 22.5053 40.1807Z" fill="#020227" fill-rule="evenodd" opacity="1" stroke="none"/>
<path d="M30.5041 13.2683L26.0474 13.2683L26.0474 17.8446L16.5009 17.8446L16.5009 13.2683L12.0442 13.2683L12.0442 17.8446L8.7237 17.8446L8.7237 22.2872L12.0442 22.2872L12.0442 27.6654C12.0442 29.1393 12.3889 30.2543 13.0784 31.0071C13.7678 31.7598 14.8477 32.1362 16.3215 32.1362L24.0213 32.1362L24.0213 27.8413L17.4577 27.8413C17.1446 27.8413 16.9054 27.7288 16.7436 27.5072C16.5818 27.2856 16.5009 26.969 16.5009 26.5574L16.5009 22.2872L26.0474 22.2872L26.0474 27.6654C26.0474 29.1393 26.3921 30.2543 27.0815 31.0071C27.771 31.7598 28.8508 32.1362 30.3247 32.1362L34.8798 32.1362L34.8798 27.8413L31.4643 27.8413C31.1513 27.8413 30.9121 27.7288 30.7503 27.5072C30.5885 27.2856 30.5076 26.969 30.5076 26.5574L30.5076 22.2872L34.8833 22.2872L34.8833 17.8446L30.5041 17.8446L30.5041 13.2683Z" fill="#020227" fill-rule="evenodd" opacity="1" stroke="none"/>
</g>
</g>
</svg>
