<?xml version="1.0" encoding="utf-8"?>
<!-- Generator: Adobe Illustrator 25.3.1, SVG Export Plug-In . SVG Version: 6.00 Build 0)  -->
<svg version="1.1" id="Layer_1" xmlns="http://www.w3.org/2000/svg" xmlns:xlink="http://www.w3.org/1999/xlink" x="0px" y="0px"
	 viewBox="0 0 135 148.28" style="enable-background:new 0 0 135 148.28;" xml:space="preserve">
<style type="text/css">
	.st0{fill:#008BD2;}
</style>
<g>
	<path class="st0" d="M118.28,40.63L81.36,19.31c-6.31-3.64-14.08-3.64-20.39,0L24.05,40.63C17.74,44.27,13.85,51,13.85,58.28v42.64
		c0,7.28,3.89,14.01,10.19,17.66l36.92,21.32c6.31,3.64,14.08,3.64,20.39,0l36.92-21.32c6.31-3.64,10.19-10.37,10.19-17.66V58.28
		C128.48,51,124.59,44.27,118.28,40.63z M71.17,129.87c-27.76,0-50.27-22.51-50.27-50.27S43.4,29.33,71.17,29.33
		s50.27,22.51,50.27,50.27S98.93,129.87,71.17,129.87z"/>
	<path class="st0" d="M93.91,53.36H81.24v13.01H54.1V53.36H41.43v13.01h-9.44V79h9.44v15.29c0,4.19,0.98,7.36,2.94,9.5
		c1.96,2.14,5.03,3.21,9.22,3.21h21.89V94.79H56.82c-0.89,0-1.57-0.32-2.03-0.95c-0.46-0.63-0.69-1.53-0.69-2.7V79h27.14v15.29
		c0,4.19,0.98,7.36,2.94,9.5c1.96,2.14,5.03,3.21,9.22,3.21h12.95V94.79h-9.71c-0.89,0-1.57-0.32-2.03-0.95
		c-0.46-0.63-0.69-1.53-0.69-2.7V79h12.44V66.37H93.91V53.36z"/>
</g>
</svg>
